<svg height="512pt" viewBox="0 -4 512.00203 512" width="512pt" xmlns="http://www.w3.org/2000/svg"><path d="m211.269531 306.988281c2.976563-2.972656 2.976563-7.789062 0-10.761719-2.972656-2.972656-7.789062-2.972656-10.761719 0-12.316406 12.316407-32.355468 12.316407-44.671874 0-2.972657-2.972656-7.792969-2.972656-10.765626 0-2.972656 2.972657-2.972656 7.792969 0 10.761719 9.128907 9.128907 21.113282 13.691407 33.101563 13.691407s23.972656-4.5625 33.097656-13.691407zm0 0"/><path d="m457.578125 170.601562h-132.96875c-4.203125 0-7.609375 3.40625-7.609375 7.613282 0 4.203125 3.40625 7.609375 7.609375 7.609375h4.898437c-12.179687 12.332031-19.96875 31.042969-19.96875 51.964843 0 20.917969 7.789063 39.628907 19.96875 51.960938l-16.058593.007812v-6.800781c0-10.0625-8.1875-18.246093-18.246094-18.246093h-42.566406c-10.058594 0-18.242188 8.183593-18.242188 18.246093v1.636719c-5.613281-3.589844-10.441406-8.871094-14.148437-15.304688-.121094-.246093-.253906-.480468-.398438-.707031-4.839844-8.691406-7.667968-19.386719-7.667968-30.792969s2.792968-21.960937 7.511718-30.542968c.253906-.359375.46875-.746094.65625-1.148438 7.171875-12.316406 18.410156-20.273437 31.03125-20.273437h41.21875c4.203125 0 7.613282-3.40625 7.613282-7.609375 0-4.207032-3.410157-7.613282-7.613282-7.613282h-17.476562v-19.347656c12.597656-9.757812 22.085937-21.878906 28.3125-36.300781 21.414062-49.582031-3.414063-107.914063-4.480469-110.371094-1.03125-2.375-3.195313-4.0625-5.75-4.480469-2.554687-.417968-5.144531.488282-6.878906 2.40625-25.109375 27.765626-67.765625 23.394532-112.925781 18.769532-11.046876-1.132813-22.464844-2.304688-33.660157-2.984375-33.015625-2.011719-63.117187 15.984375-76.898437 45.3125-12.136719-1.90625-24.445313 1-34.628906 8.347656-12.0625 8.703125-19.140626 22.214844-19.425782 37.074219-.621094 32.527344 13.3125 66.261718 21.09375 82.488281-17.246094 4.621094-29.878906 19.210937-29.878906 36.453125 0 19.175781 15.621094 35.066406 35.835938 37.621094 4.296874 24.035156 15.789062 46.15625 33.414062 63.78125 12.046875 12.046875 26.195312 21.226562 41.621094 27.207031v22.21875h-44.730469c-30.988281 0-56.199219 25.207031-56.199219 56.195313v62.441406c0 4.203125 3.410156 7.609375 7.613282 7.609375l288.28125-.355469c4.203124 0 7.613281-3.40625 7.613281-7.613281v-18.609375c0-4.203125-3.410157-7.613282-7.613281-7.613282-4.203126 0-7.609376 3.410157-7.609376 7.613282v11h-6.816406c-.007812 0-41.792968 0-41.792968 0v-145.699219h48.609374v103.203125c0 4.203125 3.40625 7.613281 7.609376 7.613281 4.203124 0 7.613281-3.410156 7.613281-7.613281v-141.988281h10.304687v192.09375c0 4.207031 3.410156 7.613281 7.613282 7.613281h63.832031c4.203125 0 7.609375-3.40625 7.609375-7.613281v-192.097657h54.773437c30.007813 0 54.421875-30.140624 54.421875-67.1875 0-37.046874-24.417968-67.1875-54.425781-67.1875zm-354.28125 296.335938c-.730469-2.640625-2.828125-4.6875-5.488281-5.351562l-25.40625-6.351563 2.417968-61.214844h14.035157l27.296875 95.800781h-30.273438l15.464844-15.46875c1.9375-1.9375 2.6875-4.769531 1.953125-7.414062zm13.1875-72.917969 25.515625 14.375-25.851562 25.851563-11.460938-40.226563zm75.976563 0h11.796874l-11.460937 40.226563-25.851563-25.851563zm-37.988282 23.429688 14.148438 14.148437-14.800782 18.285156-13.960937-17.820312zm-25.457031 25.457031 15.621094 19.941406-15.046875 18.585938-8.667969-30.429688zm50.429687-.484375 8.578126 8.578125-8.539063 29.972656-15.367187-19.617187zm-24.507812 31.898437 12.140625 15.5h-24.6875zm65.152344-80.300781h14.304687v61.273438l-23.402343 6.332031c-2.621094.707031-4.667969 2.757812-5.367188 5.382812s.050781 5.425782 1.972656 7.34375l15.464844 15.46875h-30.265625zm7.570312 78.867188 6.734375-1.824219v8.558594zm-13.402344-94.089844c-.042968 0-.085937-.003906-.132812 0h-16.046875v-22.214844c13.257813-5.125 25.550781-12.589843 36.316406-22.121093v44.335937zm-12.582031-113.757813h-9.996093c-10.722657 0-19.78125-12.476562-19.78125-27.25 0-14.777343 9.058593-27.257812 19.78125-27.257812h9.972656c-3.007813 8.335938-4.699219 17.554688-4.699219 27.257812.003906 9.617188 1.6875 18.855469 4.722656 27.25zm-177.667969-155.722656c.191407-10.023437 4.96875-19.144531 13.113282-25.019531 5.507812-3.972656 11.9375-6.027344 18.488281-6.027344 3.167969 0 6.367187.480469 9.5 1.457031 3.859375 1.199219 7.984375-.824218 9.394531-4.613281 9.914063-26.636719 35.757813-43.367187 64.308594-41.625 10.882812.664063 22.144531 1.816407 33.03125 2.933594 42.597656 4.363281 86.511719 8.863281 116.902344-15.355469 5.722656 17.921875 14.578125 55.746094.710937 87.851563-9.097656 21.066406-26.773437 36.457031-52.535156 45.734375-72.230469 26.027344-141.574219-12.859375-142.257813-13.25-2.117187-1.21875-4.6875-1.34375-6.914062-.347656-2.226562 1-3.835938 3.007812-4.332031 5.398437-.089844.414063-8.5625 39.558594-37.433594 43.25-6.066406-11.929687-22.605469-47.570313-21.976563-80.386719zm-8.785156 118.652344c0-10.261719 7.898438-18.957031 18.707032-21.789062v37.910156c0 1.90625.046874 3.808594.136718 5.703125-10.882812-2.796875-18.84375-11.519531-18.84375-21.824219zm33.929688 16.121094v-39.453125c15.453125-2.332031 28.554687-11.859375 38.210937-27.917969 3.859375-6.421875 6.515625-12.820312 8.242188-17.796875 8.167969 3.8125 21.765625 9.402344 39.007812 13.71875 47.453125 11.875 84.632813 4.5625 107.46875-3.664063 6.371094-2.292968 12.289063-4.945312 17.816407-7.90625v9.53125h-8.519532c-16.964844 0-32.136718 9.636719-42.125 24.707032h-17.570312c-17.160156 0-31.46875 15.066406-34.433594 34.871094h-12.671875c-4.203125 0-7.609375 3.410156-7.609375 7.613281s3.40625 7.613281 7.609375 7.613281h12.671875c2.964844 19.796875 17.273438 34.859375 34.429688 34.859375h17.585937c6.457031 9.773437 15.113281 17.3125 25.128906 21.367187v11.195313c-20.078125 23.316406-49.035156 36.636719-79.875 36.636719-28.144531 0-54.605469-10.957032-74.507812-30.859375-19.898438-19.898438-30.859375-46.363281-30.859375-74.515625zm105.367187 120.597656c9.660157 0 19.160157-1.152344 28.332031-3.359375v20.632813l-28.378906 15.988281-28.378906-15.988281v-20.632813c9.199219 2.214844 18.722656 3.359375 28.425781 3.359375zm-129.351562 70.304688c0-20.355469 14.917969-37.28125 34.394531-40.4375l-2.617188 66.261718c-.140624 3.605469 2.265626 6.8125 5.761719 7.6875l18.363281 4.589844-16.722656 16.726562h-39.179687zm224.449219-106.449219v-45.585938c0-1.667969 1.355468-3.023437 3.019531-3.023437h42.566406c1.664063 0 3.019531 1.355468 3.019531 3.023437v45.585938zm173.507812-142.71875c-4.90625 4.96875-9.09375 10.980469-12.355469 17.746093-3.257812-6.765624-7.445312-12.777343-12.351562-17.746093zm-98.359375 51.964843c0-28.652343 17.582031-51.964843 39.195313-51.964843 21.613281 0 39.195312 23.3125 39.195312 51.964843 0 28.652344-17.582031 51.960938-39.195312 51.960938-21.613282 0-39.195313-23.308594-39.195313-51.960938zm62.816406 93.378907h-48.605469v-25.894531h48.609376v25.894531zm0 158.296875h-48.605469v-143.074219h48.609376v143.074219zm10.835938-199.714844c4.90625-4.96875 9.09375-10.976562 12.351562-17.746094 3.261719 6.769532 7.449219 12.777344 12.355469 17.746094zm59.160156 0c-21.613281 0-39.195313-23.308594-39.195313-51.960938 0-28.652343 17.582032-51.964843 39.195313-51.964843s39.199219 23.3125 39.199219 51.964843c0 28.652344-17.585938 51.960938-39.199219 51.960938zm0 0"/></svg>