<svg height="480pt" viewBox="-63 0 479 480" width="480pt" xmlns="http://www.w3.org/2000/svg"><path d="m73.300781 168h-16.800781c-30.914062.035156-55.964844 25.085938-56 56v192c0 17.671875 14.328125 32 32 32h8c14.917969-.027344 27.839844-10.363281 31.144531-24.910156 7.019531 5.726562 15.792969 8.871094 24.855469 8.910156v40c0 4.417969 3.582031 8 8 8s8-3.582031 8-8v-40h136v40c0 4.417969 3.582031 8 8 8s8-3.582031 8-8v-40.800781c7.113281-1.492188 13.683594-4.90625 18.992188-9.871094 5.199218 11.347656 16.523437 18.640625 29.007812 18.671875h8c17.671875 0 32-14.328125 32-32v-56c0-4.417969-3.582031-8-8-8s-8 3.582031-8 8v56c0 8.835938-7.164062 16-16 16h-8c-8.835938 0-16-7.164062-16-16v-144h40v24c0 4.417969 3.582031 8 8 8s8-3.582031 8-8v-64c-.035156-30.914062-25.085938-55.964844-56-56h-16.800781c-3.828125-18.613281-20.199219-31.976562-39.199219-32h-4.3125c7.988281-11.8125 12.273438-25.738281 12.3125-40h16c13.253906 0 24-10.746094 24-24s-10.746094-24-24-24h-16.640625c-3.972656-27.527344-27.546875-47.96875-55.359375-48h-32c-27.8125.03125-51.386719 20.472656-55.359375 48h-24.640625c-13.253906 0-24 10.746094-24 24s10.746094 24 24 24h24c.039062 14.261719 4.324219 28.1875 12.3125 40h-4.3125c-19 .023438-35.371094 13.386719-39.199219 32zm-16.800781 224v24c0 8.835938-7.164062 16-16 16h-8c-8.835938 0-16-7.164062-16-16v-152h40zm0-160v16h-40v-24c.027344-22.082031 17.917969-39.972656 40-40h16v16.199219c-10.015625 7.511719-15.9375 19.28125-16 31.800781zm224 8v-56h16c22.082031.027344 39.972656 17.917969 40 40v24h-48c-4.417969 0-8 3.582031-8 8v136c0 13.253906-10.746094 24-24 24h-160c-13.253906 0-24-10.746094-24-24v-152c.023438 19 13.386719 35.371094 32 39.199219v24.800781c0 13.253906 10.746094 24 24 24s24-10.746094 24-24v-24h48v24c0 13.253906 10.746094 24 24 24s24-10.746094 24-24v-24.800781c18.613281-3.828125 31.976562-20.199219 32-39.199219zm-64 64v-64c0-4.417969 3.582031-8 8-8s8 3.582031 8 8v64c0 4.417969-3.582031 8-8 8s-8-3.582031-8-8zm-103.449219-224h-32.550781c-4.417969 0-8-3.582031-8-8s3.582031-8 8-8h128c4.417969 0 8-3.582031 8-8s-3.582031-8-8-8h-87.199219c3.828125-18.613281 20.199219-31.976562 39.199219-32h32c22.082031.027344 39.972656 17.917969 40 40 0 4.417969 3.582031 8 8 8h24c4.417969 0 8 3.582031 8 8s-3.582031 8-8 8zm119.449219 16c-.023438 15.0625-6.113281 29.480469-16.894531 40h-78.210938c-10.78125-10.519531-16.871093-24.9375-16.894531-40zm-98.230469 56h106.230469c13.253906 0 24 10.746094 24 24v64c-.042969 10.132812-6.445312 19.148438-16 22.527344v-22.527344c0-13.253906-10.746094-24-24-24s-24 10.746094-24 24v24h-48v-24c0-4.417969-3.582031-8-8-8s-8 3.582031-8 8v64c0 4.417969-3.582031 8-8 8s-8-3.582031-8-8v-64c0-4.417969-3.582031-8-8-8s-8 3.582031-8 8v22.527344c-9.554688-3.378906-15.957031-12.394532-16-22.527344v-64c0-13.253906 10.746094-24 24-24zm0 0"/><path d="m240.5 360h-128c-4.417969 0-8 3.582031-8 8s3.582031 8 8 8h96v16c0 4.417969 3.582031 8 8 8s8-3.582031 8-8v-16h16c4.417969 0 8-3.582031 8-8s-3.582031-8-8-8zm0 0"/><path d="m168.5 216h16c4.417969 0 8-3.582031 8-8s-3.582031-8-8-8h-16c-4.417969 0-8-3.582031-8-8v-8h40c4.417969 0 8-3.582031 8-8s-3.582031-8-8-8h-48c-4.417969 0-8 3.582031-8 8v16c0 13.253906 10.746094 24 24 24zm0 0"/></svg>