<svg height="512pt" viewBox="0 0 512 512" width="512pt" xmlns="http://www.w3.org/2000/svg"><path d="m197.023438 301.191406c7.28125 0 14.519531.597656 21.636718 1.800782 28.15625-20.726563 62.167969-31.992188 97.339844-31.992188 39.328125 0 77.050781 14.535156 106 38.59375v-294.59375c0-8.289062-7.710938-15-16-15h-301c-8.289062 0-15 6.710938-15 15v337.050781c25.351562-31.515625 65.296875-50.859375 107.023438-50.859375zm133.976562-256.191406c0-8.289062 6.710938-15 15-15s15 6.710938 15 15v61c0 8.289062-6.710938 15-15 15s-15-6.710938-15-15zm15 106c8.285156 0 15 6.714844 15 15s-6.714844 15-15 15-15-6.714844-15-15 6.714844-15 15-15zm-75-75c0-8.289062 6.710938-16 15-16s15 7.710938 15 16v90c0 8.289062-6.710938 15-15 15s-15-6.710938-15-15zm15 135c8.285156 0 15 6.714844 15 15s-6.714844 15-15 15-15-6.714844-15-15 6.714844-15 15-15zm-75-166c0-8.289062 6.710938-15 15-15s15 6.710938 15 15v61c0 8.289062-6.710938 15-15 15s-15-6.710938-15-15zm15 106c8.285156 0 15 6.714844 15 15s-6.714844 15-15 15-15-6.714844-15-15 6.714844-15 15-15zm-75-15c0-8.289062 6.710938-15 15-15s15 6.710938 15 15v60c0 8.289062-6.710938 15-15 15s-15-6.710938-15-15zm15 105c8.285156 0 15 6.714844 15 15s-6.714844 15-15 15-15-6.714844-15-15 6.714844-15 15-15zm0 0"/><path d="m512 376c0 8.285156-6.714844 15-15 15s-15-6.714844-15-15 6.714844-15 15-15 15 6.714844 15 15zm0 0"/><path d="m30 376c0 8.285156-6.714844 15-15 15s-15-6.714844-15-15 6.714844-15 15-15 15 6.714844 15 15zm0 0"/><path d="m482 316c0 8.285156-6.714844 15-15 15s-15-6.714844-15-15 6.714844-15 15-15 15 6.714844 15 15zm0 0"/><path d="m60 316c0 8.285156-6.714844 15-15 15s-15-6.714844-15-15 6.714844-15 15-15 15 6.714844 15 15zm0 0"/><path d="m446.800781 399.261719c-16.289062-57.421875-70.582031-98.261719-130.800781-98.261719-33.441406 0-64.980469 12.1875-89.824219 34.496094-49.042969-14.882813-104.140625 10.078125-125.6875 55.605468-55.808593 2.375-100.488281 49.515626-100.488281 105.898438 0 8.289062 6.710938 15 15 15h482c8.289062 0 15-6.710938 15-15 0-42.773438-25.867188-81.652344-65.199219-97.738281zm-250.800781 21.738281c-8.285156 0-15-6.714844-15-15s6.714844-15 15-15 15 6.714844 15 15-6.714844 15-15 15zm60 30c-8.285156 0-15-6.714844-15-15s6.714844-15 15-15 15 6.714844 15 15-6.714844 15-15 15zm90-30c-8.285156 0-15-6.714844-15-15s6.714844-15 15-15 15 6.714844 15 15-6.714844 15-15 15zm0 0"/></svg>