<svg height="491pt" viewBox="0 -6 491.2 491" width="491pt" xmlns="http://www.w3.org/2000/svg"><path d="m479.898438 125.726562 11.300781-11.300781-64-64c-3.097657-3.101562-8.199219-3.101562-11.300781 0l-34.296876 34.300781-42.300781-42.300781c-3.101562-3.101562-8.199219-3.101562-11.300781 0l-120 120 11.300781 11.300781 114.300781-114.402343 66.296876 66.300781 11.300781-11.300781-18.300781-18.300781 28.703124-28.699219zm0 0"/><path d="m125.601562 19.324219 66.296876 66.300781 11.300781-11.300781-18.300781-18.300781 28.703124-28.699219 50.296876 50.300781 11.300781-11.300781-56-56c-3.097657-3.097657-8.199219-3.097657-11.300781 0l-34.296876 34.402343-42.300781-42.300781c-3.101562-3.101562-8.199219-3.101562-11.300781 0l-120 120 11.300781 11.300781zm0 0"/><path d="m455.898438 178.324219-50.296876 50.402343-34.300781-34.300781c-3.101562-3.101562-8.199219-3.101562-11.300781 0l-37.699219 37.597657h-124.699219c-8.101562-.199219-16.203124 1.601562-23.402343 5.300781l-42.898438-42.898438c-3.101562-3.101562-8.199219-3.101562-11.300781 0l-33.898438 33.898438-42.402343-49.398438c-2.898438-3.402343-7.898438-3.699219-11.300781-.902343-.199219.101562-.296876.300781-.398438.402343l-32 32 11.300781 11.300781 25.898438-25.902343 42.402343 49.402343c1.5 1.699219 3.5 2.699219 5.796876 2.796876 2.203124.101562 4.402343-.796876 6-2.296876l34.300781-34.300781 36.699219 36.699219c-3.097657 4.800781-4.699219 10.300781-4.699219 16v112h16v-112.101562c0-10 9-16 24-16h92.402343c-2.902343 4.800781-4.402343 10.402343-4.402343 16v120h16v-120c0-8.796876 7.199219-16 16-16h8l.601562-.097657c1.898438-.199219 3.597657-1 5-2.199219l34.300781-34.300781 34.296876 34.300781c3.101562 3.097657 8.203124 3.097657 11.300781 0l50.300781-50.300781 18.300781 18.300781 11.300781-11.300781-24-24c-3-3.199219-8-3.199219-11.203124-.101562zm0 0"/><path d="m221.601562 296.023438h16v24h-16zm0 0"/><path d="m245.601562 368.023438h16v32h-16zm0 0"/><path d="m189.601562 304.023438h16v56h-16zm0 0"/><path d="m245.101562 288.523438h16v16h-16zm0 0"/><path d="m245.601562 336.023438h16v16h-16zm0 0"/><path d="m205.601562 368.023438h16v16h-16zm0 0"/><path d="m222.101562 394.523438h16v40h-16zm0 0"/><path d="m221.601562 264.023438h16v16h-16zm0 0"/><path d="m193.800781 462.425781 14.398438 7.097657c5.699219-11.796876 19.902343-16.796876 31.699219-11.097657 4.601562 2.199219 8.300781 5.800781 10.703124 10.300781 2.097657 3.898438 7 5.296876 10.898438 3.199219 1.300781-.699219 2.5-1.800781 3.199219-3.199219 4.101562-7.703124 12.199219-12.601562 21-12.601562h16v-24h-16v8c-10.5 0-20.597657 4.199219-28 11.601562-15.5-15.5-40.699219-15.5-56.097657 0-3.300781 3.097657-5.902343 6.699219-7.800781 10.699219zm0 0"/><path d="m320.699219 470.726562c3-4.203124 7.800781-6.703124 12.902343-6.703124 8.796876 0 16 7.203124 16 16h16c0-8.796876 7.199219-16 16-16v-16c-9.203124 0-18 4.101562-24 11.101562-11.402343-13.300781-31.402343-14.800781-44.703124-3.398438-1.898438 1.699219-3.597657 3.5-5.097657 5.597657zm0 0"/><path d="m285.601562 416.023438h8v-16h-8c-17.703124 0-32 14.300781-32 32h16c0-8.796876 7.199219-16 16-16zm0 0"/><path d="m309.601562 400.023438h16v16h-16zm0 0"/><path d="m397.601562 448.023438h16v16h-16zm0 0"/><path d="m141.601562 392.023438v16h16c17.699219 0 32 14.300781 32 32h16c0-26.5-21.5-48-48-48zm0 0"/><path d="m109.601562 392.023438h16v16h-16zm0 0"/><path d="m77.601562 448.023438c17.699219 0 32 14.300781 32 32h16c0-8.796876 7.199219-16 16-16 5.398438 0 10.296876 2.703124 13.296876 7.203124l13.300781-8.800781c-1.597657-2.402343-3.398438-4.5-5.597657-6.402343h11v-32h-16v28.300781c-12.203124-7.199219-27.800781-5.300781-38 4.5-8.402343-15.300781-24.5-24.800781-42-24.898438zm0 0"/><path d="m45.601562 432.023438h16v16h-16zm0 0"/></svg>