<svg height="480pt" viewBox="0 -12 480 480" width="480pt" xmlns="http://www.w3.org/2000/svg"><path d="m128 456.054688v-128s0-32 32-32 32-32 32-32v-72h-192v264zm0 0" fill="#ffbf75"/><path d="m288 456.054688v-88s0-32 32-32 32-32 32-32v-112h128v264zm0 0" fill="#ffbf75"/><path d="m192 192.054688v72s0 32-32 32-32 32-32 32v128h160v-88s0-32 32-32 32-32 32-32v-112zm0 0" fill="#75c1ff"/><path d="m208 88.054688c0 30.925781-25.070312 56-56 56s-56-25.074219-56-56c0-30.929688 25.070312-56 56-56s56 25.070312 56 56zm0 0" fill="#73c97c"/><path d="m432 64.054688c0 30.925781-25.070312 56-56 56s-56-25.074219-56-56c0-30.929688 25.070312-56 56-56s56 25.070312 56 56zm0 0" fill="#73c97c"/><path d="m384 184.054688v-56.558594c33.523438-4.222656 57.992188-33.78125 55.875-67.503906-2.117188-33.722657-30.085938-59.992188-63.875-59.992188s-61.757812 26.269531-63.875 59.992188c-2.117188 33.722656 22.351562 63.28125 55.875 67.503906v56.558594h-208v-32.558594c33.523438-4.222656 57.992188-33.78125 55.875-67.503906-2.117188-33.722657-30.085938-59.992188-63.875-59.992188s-61.757812 26.269531-63.875 59.992188c-2.117188 33.722656 22.351562 63.28125 55.875 67.503906v32.558594h-144v16h184v64c-.015625 13.246093-10.75 23.984374-24 24-22.082031.023437-39.972656 17.917968-40 40v128h16v-128c.015625-13.25 10.75-23.988282 24-24 22.082031-.027344 39.972656-17.921876 40-40v-64h144v104c-.015625 13.246093-10.75 23.984374-24 24-22.082031.023437-39.972656 17.917968-40 40v88h16v-88c.015625-13.25 10.75-23.988282 24-24 22.082031-.027344 39.972656-17.921876 40-40v-104h120v-16zm-56-120c-.027344-25.476563 19.851562-46.535157 45.289062-47.976563 25.433594-1.4375 47.5625 17.242187 50.410157 42.558594 2.847656 25.316406-14.578125 48.449219-39.699219 52.695312v-28.613281l22.398438-29.867188-12.796876-9.59375-19.460937 25.945313-17.703125-11.804687-8.875 13.3125 20.4375 13.621093v27c-23.066406-3.914062-39.960938-23.878906-40-47.277343zm-224 24c-.027344-25.476563 19.851562-46.535157 45.289062-47.976563 25.433594-1.4375 47.5625 17.242187 50.410157 42.558594 2.847656 25.316406-14.578125 48.449219-39.699219 52.695312v-28.613281l22.398438-29.867188-12.796876-9.59375-19.460937 25.945313-17.703125-11.804687-8.875 13.3125 20.4375 13.621093v27c-23.066406-3.914062-39.960938-23.878906-40-47.277343zm0 0"/><path d="m152 424.054688h16v16h-16zm0 0"/><path d="m152 360.054688h16v48h-16zm0 0"/><path d="m184 392.054688h16v16h-16zm0 0"/><path d="m184 320.054688h16v56h-16zm0 0"/><path d="m216 408.054688h16v16h-16zm0 0"/><path d="m216 352.054688h16v40h-16zm0 0"/><path d="m248 416.054688h16v16h-16zm0 0"/><path d="m248 336.054688h16v64h-16zm0 0"/><path d="m216 216.054688h16v40h-16zm0 0"/><path d="m216 272.054688h16v16h-16zm0 0"/><path d="m248 304.054688h16v16h-16zm0 0"/><path d="m248 232.054688h16v56h-16zm0 0"/><path d="m280 216.054688h16v56h-16zm0 0"/><path d="m280 288.054688h16v16h-16zm0 0"/><path d="m312 280.054688h16v16h-16zm0 0"/><path d="m312 232.054688h16v32h-16zm0 0"/><path d="m136 248.054688h-41.371094c-6.371094-.015626-12.480468 2.515624-16.972656 7.03125l-14.625 14.625c-1.5 1.503906-3.535156 2.347656-5.660156 2.34375h-9.371094v16h9.371094c6.371094.015624 12.480468-2.515626 16.972656-7.03125l14.625-14.625c1.5-1.503907 3.535156-2.347657 5.660156-2.34375h41.371094zm0 0"/><path d="m389.65625 351.085938-14.625 14.625c-1.5 1.503906-3.535156 2.347656-5.660156 2.34375h-25.371094v16h25.371094c6.371094.015624 12.480468-2.515626 16.972656-7.03125l14.625-14.625c1.5-1.503907 3.535156-2.347657 5.660156-2.34375h25.371094v-16h-25.371094c-6.371094-.015626-12.480468 2.515624-16.972656 7.03125zm0 0"/><path d="m16 328.054688h16v16h-16zm0 0"/><path d="m48 328.054688h40v16h-40zm0 0"/><path d="m384 256.054688h16v16h-16zm0 0"/><path d="m416 256.054688h48v16h-48zm0 0"/><path d="m16 272.054688h16v16h-16zm0 0"/><path d="m152 248.054688h16v16h-16zm0 0"/><path d="m312 368.054688h16v16h-16zm0 0"/><path d="m448 344.054688h16v16h-16zm0 0"/></svg>