<svg height="512pt" viewBox="0 -4 512.00203 512" width="512pt" xmlns="http://www.w3.org/2000/svg"><path d="m190.460938 386.402344h52.34375c26.832031 0 48.582031 21.75 48.582031 48.585937v62.445313h-273.835938v-62.445313c0-26.835937 21.75-48.585937 48.585938-48.585937h52.339843" fill="#515f75"/><path d="m94.601562 386.402344 31.632813 111.03125h56.476563l31.632812-111.03125" fill="#f2f2f2"/><path d="m190.464844 324.023438v62.382812l-35.992188 20.28125-11.121094-6.265625-24.871093-14.015625v-62.421875l24.871093.011719zm0 0" fill="#f9c2af"/><path d="m126.433594 497.433594 28.597656-35.332032 27.679688 35.332032" fill="#f74866"/><path d="m143.351562 323.996094-24.871093-.011719v62.421875l24.871093 14.015625v-28.863281c3.675782.359375 7.398438.566406 11.171876.566406 12.5625 0 24.652343-2.050781 35.941406-5.839844v-42.261718zm0 0" fill="#ea9e8f"/><path d="m41.542969 258.34375c-18.738281 0-33.929688-13.597656-33.929688-30.375s15.191407-30.375 33.929688-30.375h125.082031c18.738281 0 33.929688 13.597656 33.929688 30.375s-15.191407 30.375-33.929688 30.375" fill="#ea9e8f"/><path d="m267.503906 131.117188v112.980468c0 62.394532-50.582031 112.980469-112.980468 112.980469-62.394532 0-112.980469-50.585937-112.980469-112.980469v-112.980468" fill="#f9c2af"/><path d="m153.722656 357.070312c-30.882812-.207031-58.8125-12.8125-79.089844-33.082031-20.445312-20.453125-33.089843-48.691406-33.089843-79.894531v-112.980469h50.867187v112.984375c0 31.199219 6.949219 59.4375 18.191406 79.890625 11.066407 20.128907 26.285157 32.691407 43.121094 33.082031zm0 0" fill="#ea9e8f"/><path d="m239.5 161.8125c-40.9375 14.753906-80.570312 9.785156-108.601562 1.972656 0 0-.011719 0-.011719-.007812-24.410157-6.804688-40.015625-15.773438-40.015625-15.773438s-10.304688 49.582032-49.328125 49.582032c0 0-25.960938-45.921876-25.148438-88.410157.425781-22.035156 18.589844-38.515625 39.242188-38.515625 3.859375 0 7.800781.570313 11.726562 1.796875 11.0625-29.699219 40.28125-48.496093 71.914063-46.570312 4.929687.304687 9.886718.695312 14.863281 1.144531.949219.078125 1.914063.167969 2.863281.257812.097656.007813.195313.019532.296875.027344 51.636719 4.847656 103.9375 14.292969 134.667969-19.707031.003906 0 50.792969 117.003906-52.46875 154.203125zm0 0" fill="#515f75"/><path d="m139.28125 25.886719c4.925781.304687 9.882812.695312 14.859375 1.148437-45.5625-1.925781-81.757813 98.414063-23.25 136.742188-24.410156-6.804688-40.019531-15.773438-40.019531-15.773438s-10.304688 49.582032-49.328125 49.582032c0 0-25.960938-45.921876-25.144531-88.410157.421874-22.035156 18.589843-38.515625 39.238281-38.515625 3.859375 0 7.804687.570313 11.730469 1.796875 11.058593-29.699219 40.277343-48.496093 71.914062-46.570312zm0 0" fill="#3b485b"/><path d="m129.710938 431.449219 24.011718 30.652343 24.8125-30.652343-24.0625-24.761719z" fill="#f74866"/><path d="m395.199219 297.664062v41.121094h-63.835938v-41.121094h10.632813 42.570312zm0 0" fill="#f4af9d"/><path d="m395.199219 297.664062v41.121094h-38.109375v-41.121094zm0 0" fill="#f9c2af"/><path d="m331.367188 338.78125h63.828124v158.292969h-63.828124zm0 0" fill="#515f75"/><path d="m331.367188 338.78125h25.53125v158.292969h-25.53125zm0 0" fill="#3b485b"/><path d="m457.578125 178.214844v119.144531h-106.898437c-24.957032 0-51.023438-24.855469-52.40625-56.164063-.058594-1.121093-.078126-2.257812-.078126-3.402343 0-32.910157 26.632813-59.578125 52.484376-59.578125zm0 0" fill="#dd8c22"/><path d="m213.425781 272.652344h-21.746093c-15.125 0-27.394532-15.601563-27.394532-34.863282 0-19.257812 12.269532-34.871093 27.394532-34.871093h21.753906" fill="#dd8c22"/><path d="m363.957031 178.214844v119.144531h-112.574219c-24.953124 0-45.34375-24.855469-46.730468-56.164063-.054688-1.121093-.078125-2.257812-.078125-3.402343 0-32.910157 20.960937-59.578125 46.8125-59.578125zm0 0" fill="#efa233"/><path d="m350.148438 241.195312v56.164063h-98.765626c-24.953124 0-45.347656-24.855469-46.730468-56.164063zm0 0" fill="#dd8c22"/><path d="m410.769531 237.792969c0 22.410156-9.734375 41.941406-24.113281 52.109375-6.71875 4.753906-14.460938 7.457031-22.699219 7.457031-25.847656 0-46.808593-26.667969-46.808593-59.566406 0-32.910157 20.960937-59.578125 46.808593-59.578125 8.242188 0 15.980469 2.710937 22.699219 7.464844 14.378906 10.15625 24.113281 29.6875 24.113281 52.113281zm0 0" fill="#79bbe8"/><path d="m410.769531 237.792969c0 22.410156-9.734375 41.941406-24.113281 52.109375-14.378906-10.167969-24.117188-29.699219-24.117188-52.109375 0-22.425781 9.738282-41.957031 24.117188-52.113281 14.378906 10.15625 24.113281 29.6875 24.113281 52.113281zm0 0" fill="#aedbf4"/><path d="m504.386719 237.789062c0-32.902343-20.957031-59.578124-46.808594-59.578124s-46.808594 26.675781-46.808594 59.578124c0 32.902344 20.957031 59.574219 46.808594 59.574219s46.808594-26.671875 46.808594-59.574219zm0 0" fill="#79bbe8"/><path d="m504.386719 237.792969c0 22.410156-9.734375 41.941406-24.113281 52.109375-14.378907-10.167969-24.113282-29.699219-24.113282-52.109375 0-22.425781 9.734375-41.957031 24.113282-52.113281 14.378906 10.15625 24.113281 29.6875 24.113281 52.113281zm0 0" fill="#aedbf4"/><path d="m305.835938 282.957031v53.199219h-63.832032v-53.199219c0-5.878906 4.765625-10.632812 10.632813-10.632812h42.566406c5.867187 0 10.632813 4.753906 10.632813 10.632812zm0 0" fill="#f4af9d"/><path d="m305.835938 282.957031v53.199219h-38.105469v-53.199219c0-5.878906 4.753906-10.632812 10.632812-10.632812h16.839844c5.867187 0 10.632813 4.753906 10.632813 10.632812zm0 0" fill="#f9c2af"/><path d="m242.003906 336.152344h63.832032v160.921875h-63.832032zm0 0" fill="#515f75"/><path d="m242.003906 336.152344h25.535156v160.921875h-25.535156zm0 0" fill="#3b485b"/><path d="m211.269531 306.988281c2.976563-2.972656 2.976563-7.789062 0-10.761719-2.972656-2.972656-7.789062-2.972656-10.761719 0-12.316406 12.316407-32.355468 12.316407-44.671874 0-2.972657-2.972656-7.792969-2.972656-10.765626 0-2.972656 2.972657-2.972656 7.792969 0 10.761719 9.128907 9.128907 21.113282 13.691407 33.101563 13.691407s23.972656-4.5625 33.097656-13.691407zm0 0"/><path d="m457.578125 170.601562h-132.96875c-4.203125 0-7.609375 3.40625-7.609375 7.613282 0 4.203125 3.40625 7.609375 7.609375 7.609375h4.898437c-12.179687 12.332031-19.96875 31.042969-19.96875 51.964843 0 20.917969 7.789063 39.628907 19.96875 51.960938l-16.058593.007812v-6.800781c0-10.0625-8.1875-18.246093-18.246094-18.246093h-42.566406c-10.058594 0-18.242188 8.183593-18.242188 18.246093v1.636719c-5.613281-3.589844-10.441406-8.871094-14.148437-15.304688-.121094-.246093-.253906-.480468-.398438-.707031-4.839844-8.691406-7.667968-19.386719-7.667968-30.792969s2.792968-21.960937 7.511718-30.542968c.253906-.359375.46875-.746094.65625-1.148438 7.171875-12.316406 18.410156-20.273437 31.03125-20.273437h41.21875c4.203125 0 7.613282-3.40625 7.613282-7.609375 0-4.207032-3.410157-7.613282-7.613282-7.613282h-17.476562v-19.347656c12.597656-9.757812 22.085937-21.878906 28.3125-36.300781 21.414062-49.582031-3.414063-107.914063-4.480469-110.371094-1.03125-2.375-3.195313-4.0625-5.75-4.480469-2.554687-.417968-5.144531.488282-6.878906 2.40625-25.109375 27.765626-67.765625 23.394532-112.925781 18.769532-11.046876-1.132813-22.464844-2.304688-33.660157-2.984375-33.015625-2.011719-63.117187 15.984375-76.898437 45.3125-12.136719-1.90625-24.445313 1-34.628906 8.347656-12.0625 8.703125-19.140626 22.214844-19.425782 37.074219-.621094 32.527344 13.3125 66.261718 21.09375 82.488281-17.246094 4.621094-29.878906 19.210937-29.878906 36.453125 0 19.175781 15.621094 35.066406 35.835938 37.621094 4.296874 24.035156 15.789062 46.15625 33.414062 63.78125 12.046875 12.046875 26.195312 21.226562 41.621094 27.207031v22.21875h-44.730469c-30.988281 0-56.199219 25.207031-56.199219 56.195313v62.441406c0 4.203125 3.410156 7.609375 7.613282 7.609375l288.28125-.355469c4.203124 0 7.613281-3.40625 7.613281-7.613281v-18.609375c0-4.203125-3.410157-7.613282-7.613281-7.613282-4.203126 0-7.609376 3.410157-7.609376 7.613282v11h-6.816406c-.007812 0-41.792968 0-41.792968 0v-145.699219h48.609374v103.203125c0 4.203125 3.40625 7.613281 7.609376 7.613281 4.203124 0 7.613281-3.410156 7.613281-7.613281v-141.988281h10.304687v192.09375c0 4.207031 3.410156 7.613281 7.613282 7.613281h63.832031c4.203125 0 7.609375-3.40625 7.609375-7.613281v-192.097657h54.773437c30.007813 0 54.421875-30.140624 54.421875-67.1875 0-37.046874-24.417968-67.1875-54.425781-67.1875zm-354.28125 296.335938c-.730469-2.640625-2.828125-4.6875-5.488281-5.351562l-25.40625-6.351563 2.417968-61.214844h14.035157l27.296875 95.800781h-30.273438l15.464844-15.46875c1.9375-1.9375 2.6875-4.769531 1.953125-7.414062zm13.1875-72.917969 25.515625 14.375-25.851562 25.851563-11.460938-40.226563zm75.976563 0h11.796874l-11.460937 40.226563-25.851563-25.851563zm-37.988282 23.429688 14.148438 14.148437-14.800782 18.285156-13.960937-17.820312zm-25.457031 25.457031 15.621094 19.941406-15.046875 18.585938-8.667969-30.429688zm50.429687-.484375 8.578126 8.578125-8.539063 29.972656-15.367187-19.617187zm-24.507812 31.898437 12.140625 15.5h-24.6875zm65.152344-80.300781h14.304687v61.273438l-23.402343 6.332031c-2.621094.707031-4.667969 2.757812-5.367188 5.382812s.050781 5.425782 1.972656 7.34375l15.464844 15.46875h-30.265625zm7.570312 78.867188 6.734375-1.824219v8.558594zm-13.402344-94.089844c-.042968 0-.085937-.003906-.132812 0h-16.046875v-22.214844c13.257813-5.125 25.550781-12.589843 36.316406-22.121093v44.335937zm-12.582031-113.757813h-9.996093c-10.722657 0-19.78125-12.476562-19.78125-27.25 0-14.777343 9.058593-27.257812 19.78125-27.257812h9.972656c-3.007813 8.335938-4.699219 17.554688-4.699219 27.257812.003906 9.617188 1.6875 18.855469 4.722656 27.25zm-177.667969-155.722656c.191407-10.023437 4.96875-19.144531 13.113282-25.019531 5.507812-3.972656 11.9375-6.027344 18.488281-6.027344 3.167969 0 6.367187.480469 9.5 1.457031 3.859375 1.199219 7.984375-.824218 9.394531-4.613281 9.914063-26.636719 35.757813-43.367187 64.308594-41.625 10.882812.664063 22.144531 1.816407 33.03125 2.933594 42.597656 4.363281 86.511719 8.863281 116.902344-15.355469 5.722656 17.921875 14.578125 55.746094.710937 87.851563-9.097656 21.066406-26.773437 36.457031-52.535156 45.734375-72.230469 26.027344-141.574219-12.859375-142.257813-13.25-2.117187-1.21875-4.6875-1.34375-6.914062-.347656-2.226562 1-3.835938 3.007812-4.332031 5.398437-.089844.414063-8.5625 39.558594-37.433594 43.25-6.066406-11.929687-22.605469-47.570313-21.976563-80.386719zm-8.785156 118.652344c0-10.261719 7.898438-18.957031 18.707032-21.789062v37.910156c0 1.90625.046874 3.808594.136718 5.703125-10.882812-2.796875-18.84375-11.519531-18.84375-21.824219zm33.929688 16.121094v-39.453125c15.453125-2.332031 28.554687-11.859375 38.210937-27.917969 3.859375-6.421875 6.515625-12.820312 8.242188-17.796875 8.167969 3.8125 21.765625 9.402344 39.007812 13.71875 47.453125 11.875 84.632813 4.5625 107.46875-3.664063 6.371094-2.292968 12.289063-4.945312 17.816407-7.90625v9.53125h-8.519532c-16.964844 0-32.136718 9.636719-42.125 24.707032h-17.570312c-17.160156 0-31.46875 15.066406-34.433594 34.871094h-12.671875c-4.203125 0-7.609375 3.410156-7.609375 7.613281s3.40625 7.613281 7.609375 7.613281h12.671875c2.964844 19.796875 17.273438 34.859375 34.429688 34.859375h17.585937c6.457031 9.773437 15.113281 17.3125 25.128906 21.367187v11.195313c-20.078125 23.316406-49.035156 36.636719-79.875 36.636719-28.144531 0-54.605469-10.957032-74.507812-30.859375-19.898438-19.898438-30.859375-46.363281-30.859375-74.515625zm105.367187 120.597656c9.660157 0 19.160157-1.152344 28.332031-3.359375v20.632813l-28.378906 15.988281-28.378906-15.988281v-20.632813c9.199219 2.214844 18.722656 3.359375 28.425781 3.359375zm-129.351562 70.304688c0-20.355469 14.917969-37.28125 34.394531-40.4375l-2.617188 66.261718c-.140624 3.605469 2.265626 6.8125 5.761719 7.6875l18.363281 4.589844-16.722656 16.726562h-39.179687zm224.449219-106.449219v-45.585938c0-1.667969 1.355468-3.023437 3.019531-3.023437h42.566406c1.664063 0 3.019531 1.355468 3.019531 3.023437v45.585938zm173.507812-142.71875c-4.90625 4.96875-9.09375 10.980469-12.355469 17.746093-3.257812-6.765624-7.445312-12.777343-12.351562-17.746093zm-98.359375 51.964843c0-28.652343 17.582031-51.964843 39.195313-51.964843 21.613281 0 39.195312 23.3125 39.195312 51.964843 0 28.652344-17.582031 51.960938-39.195312 51.960938-21.613282 0-39.195313-23.308594-39.195313-51.960938zm62.816406 93.378907h-48.605469v-25.894531h48.609376v25.894531zm0 158.296875h-48.605469v-143.074219h48.609376v143.074219zm10.835938-199.714844c4.90625-4.96875 9.09375-10.976562 12.351562-17.746094 3.261719 6.769532 7.449219 12.777344 12.355469 17.746094zm59.160156 0c-21.613281 0-39.195313-23.308594-39.195313-51.960938 0-28.652343 17.582032-51.964843 39.195313-51.964843s39.199219 23.3125 39.199219 51.964843c0 28.652344-17.585938 51.960938-39.199219 51.960938zm0 0"/></svg>