<svg height="512pt" viewBox="0 -35 512 511" width="512pt" xmlns="http://www.w3.org/2000/svg"><path d="m501.992188 347.984375c-14.335938 0-22.183594 8.636719-27.910157 14.945313-5.144531 5.664062-7.847656 8.382812-13.089843 8.382812-5.242188 0-7.945313-2.722656-13.089844-8.382812-5.726563-6.308594-13.570313-14.945313-27.90625-14.945313-14.339844 0-22.183594 8.636719-27.914063 14.945313-5.140625 5.664062-7.84375 8.382812-13.085937 8.382812-5.527344 0-10.011719 4.484375-10.011719 10.011719 0 5.527343 4.484375 10.007812 10.011719 10.007812 14.335937 0 22.179687-8.636719 27.910156-14.945312 5.140625-5.664063 7.847656-8.382813 13.089844-8.382813 5.238281 0 7.945312 2.722656 13.085937 8.382813 5.730469 6.308593 13.574219 14.945312 27.910157 14.945312 14.335937 0 22.179687-8.636719 27.910156-14.941406 5.140625-5.664063 7.847656-8.386719 13.089844-8.386719 5.527343 0 10.007812-4.480468 10.007812-10.007812 0-5.53125-4.480469-10.011719-10.007812-10.011719zm0 0"/><path d="m10.007812 368.003906c5.242188 0 7.949219 2.722656 13.089844 8.382813 5.730469 6.308593 13.574219 14.945312 27.910156 14.945312 14.335938 0 22.183594-8.636719 27.910157-14.945312 5.144531-5.664063 7.847656-8.386719 13.089843-8.386719 5.242188 0 7.945313 2.722656 13.089844 8.386719 5.726563 6.308593 13.574219 14.945312 27.90625 14.945312 14.335938 0 22.183594-8.636719 27.910156-14.945312 5.144532-5.664063 7.847657-8.386719 13.089844-8.386719 5.242188 0 7.945313 2.722656 13.089844 8.386719 5.726562 6.308593 13.570312 14.945312 27.90625 14.945312 14.339844 0 22.183594-8.636719 27.914062-14.945312 5.140626-5.664063 7.84375-8.386719 13.085938-8.386719s7.945312 2.722656 13.089844 8.386719c5.726562 6.308593 13.574218 14.945312 27.910156 14.945312 5.527344 0 10.007812-4.480469 10.007812-10.007812 0-5.527344-4.480468-10.011719-10.007812-10.011719-5.242188 0-7.949219-2.722656-13.089844-8.382812-5.730468-6.308594-13.574218-14.945313-27.910156-14.945313s-22.179688 8.636719-27.910156 14.945313c-5.140625 5.664062-7.847656 8.382812-13.089844 8.382812-5.238281 0-7.945312-2.722656-13.085938-8.382812-5.730468-6.308594-13.574218-14.945313-27.910156-14.945313-14.335937 0-22.183594 8.636719-27.910156 14.945313-5.144531 5.664062-7.847656 8.382812-13.089844 8.382812-5.242187 0-7.945312-2.722656-13.085937-8.382812-5.730469-6.308594-13.574219-14.945313-27.910157-14.945313-14.335937 0-22.183593 8.636719-27.910156 14.945313-5.144531 5.664062-7.847656 8.386718-13.089844 8.386718-5.242187 0-7.945312-2.722656-13.089843-8.386718-5.726563-6.304688-13.570313-14.945313-27.910157-14.945313-5.527343 0-10.007812 4.480469-10.007812 10.011719 0 5.527344 4.480469 10.007812 10.007812 10.007812zm0 0"/><path d="m501.992188 398.035156c-14.335938 0-22.183594 8.636719-27.910157 14.945313-5.144531 5.664062-7.847656 8.382812-13.089843 8.382812-5.242188 0-7.945313-2.71875-13.089844-8.382812-5.726563-6.308594-13.570313-14.945313-27.90625-14.945313-14.339844 0-22.183594 8.636719-27.914063 14.945313-5.140625 5.664062-7.84375 8.382812-13.085937 8.382812-5.242188 0-7.945313-2.722656-13.089844-8.382812-5.726562-6.308594-13.574219-14.945313-27.910156-14.945313-14.335938 0-22.179688 8.636719-27.910156 14.945313-5.140626 5.664062-7.847657 8.382812-13.085938 8.382812-5.242188 0-7.949219-2.722656-13.089844-8.382812-5.730468-6.308594-13.574218-14.945313-27.910156-14.945313s-22.179688 8.636719-27.910156 14.945313c-5.140625 5.664062-7.847656 8.382812-13.089844 8.382812-5.238281 0-7.945312-2.71875-13.085938-8.382812-5.730468-6.308594-13.574218-14.945313-27.910156-14.945313-14.335937 0-22.183594 8.636719-27.910156 14.945313-5.144531 5.664062-7.847656 8.382812-13.089844 8.382812-5.242187 0-7.945312-2.722656-13.085937-8.382812-5.730469-6.308594-13.574219-14.945313-27.910157-14.945313-14.335937 0-22.183593 8.636719-27.910156 14.945313-5.144531 5.664062-7.847656 8.382812-13.089844 8.382812-5.242187 0-7.945312-2.722656-13.089843-8.382812-5.726563-6.308594-13.570313-14.945313-27.90625-14.945313-5.527344 0-10.011719 4.480469-10.011719 10.007813 0 5.527343 4.484375 10.007812 10.011719 10.007812 5.238281 0 7.945312 2.722657 13.085937 8.386719 5.730469 6.308594 13.574219 14.945312 27.910156 14.945312 14.335938 0 22.183594-8.636718 27.910157-14.945312 5.144531-5.664062 7.847656-8.386719 13.089843-8.386719 5.242188 0 7.945313 2.722657 13.089844 8.386719 5.726563 6.304688 13.574219 14.945312 27.90625 14.945312 14.335938 0 22.183594-8.636718 27.910156-14.945312 5.144532-5.664062 7.847657-8.386719 13.089844-8.386719 5.242188 0 7.945313 2.722657 13.089844 8.386719 5.726562 6.308594 13.570312 14.945312 27.90625 14.945312 14.339844 0 22.183594-8.636718 27.914062-14.945312 5.140626-5.664062 7.84375-8.386719 13.085938-8.386719s7.945312 2.722657 13.089844 8.386719c5.726562 6.308594 13.574218 14.945312 27.910156 14.945312s22.179688-8.636718 27.910156-14.945312c5.140625-5.664062 7.847656-8.386719 13.085938-8.386719 5.242187 0 7.945312 2.722657 13.089844 8.386719 5.730468 6.304688 13.574218 14.945312 27.910156 14.945312 14.335937 0 22.179687-8.636718 27.90625-14.945312 5.144531-5.664062 7.851562-8.386719 13.09375-8.386719 5.238281 0 7.945312 2.722657 13.085937 8.386719 5.730469 6.308594 13.574219 14.945312 27.910157 14.945312 14.335937 0 22.179687-8.636718 27.910156-14.945312 5.140625-5.664062 7.847656-8.386719 13.089844-8.386719 5.527343 0 10.007812-4.480469 10.007812-10.007812 0-5.527344-4.480469-10.007813-10.007812-10.007813zm0 0"/><path d="m337.996094 347.984375h-.007813c-5.527343 0-10.003906 4.480469-10.003906 10.007813 0 5.53125 4.484375 10.011718 10.011719 10.011718s10.011718-4.480468 10.011718-10.011718c0-5.527344-4.484374-10.007813-10.011718-10.007813zm0 0"/><path d="m10.011719 317.953125c5.238281 0 7.945312 2.722656 13.085937 8.386719 5.730469 6.308594 13.574219 14.945312 27.910156 14.945312 14.335938 0 22.183594-8.636718 27.910157-14.945312 5.144531-5.664063 7.847656-8.386719 13.089843-8.386719 5.242188 0 7.945313 2.722656 13.089844 8.386719 5.726563 6.304687 13.574219 14.945312 27.90625 14.945312 14.335938 0 22.183594-8.636718 27.910156-14.945312 5.144532-5.664063 7.847657-8.386719 13.089844-8.386719 5.242188 0 7.945313 2.722656 13.089844 8.386719 5.726562 6.304687 13.570312 14.945312 27.90625 14.945312 14.339844 0 22.183594-8.636718 27.914062-14.945312 5.140626-5.664063 7.84375-8.386719 13.085938-8.386719s7.945312 2.722656 13.089844 8.386719c5.726562 6.308594 13.574218 14.945312 27.910156 14.945312s22.179688-8.636718 27.910156-14.945312c5.140625-5.664063 7.847656-8.386719 13.085938-8.386719 5.242187 0 7.945312 2.722656 13.089844 8.386719 5.730468 6.304687 13.574218 14.945312 27.910156 14.945312 14.335937 0 22.179687-8.636718 27.90625-14.945312 5.144531-5.664063 7.851562-8.386719 13.09375-8.386719 5.238281 0 7.945312 2.722656 13.085937 8.386719 5.730469 6.304687 13.574219 14.945312 27.910157 14.945312 14.335937 0 22.179687-8.636718 27.910156-14.945312 5.140625-5.664063 7.847656-8.386719 13.089844-8.386719 5.527343 0 10.007812-4.480469 10.007812-10.007813 0-5.527343-4.480469-10.011718-10.007812-10.011718-14.335938 0-22.183594 8.640625-27.910157 14.949218-5.144531 5.660157-7.847656 8.382813-13.089843 8.382813-5.242188 0-7.945313-2.722656-13.089844-8.382813-4.625-5.09375-10.628906-11.699218-20.316406-14.058593 2.417968-10.535157 2.417968-22.070313 2.417968-30.160157v-.757812c0-5.527344-4.484375-10.011719-10.011718-10.011719h-153.980469v-25.144531c50.195312-24.148438 141.019531-3.507812 141.960937-3.292969 4.074219.949219 8.324219-.742187 10.628906-4.246093 2.304688-3.5 2.183594-8.066407-.304687-11.441407l-154.238281-209.199219c-2.070313-2.808593-5.449219-4.335937-8.9375-4.03125-3.476563.304688-6.542969 2.402344-8.09375 5.53125l-33.996094 68.714844c-2.449219 4.953125-.421875 10.957032 4.535156 13.40625 4.953125 2.453125 10.957032.421875 13.410156-4.53125l15.011719-30.347656v155.449219c-24.695312-10.976563-54.792969-8.179688-74.824219-4.210938l24.300782-49.117187c2.449218-4.957032.421875-10.960938-4.53125-13.410156-4.960938-2.453126-10.960938-.421876-13.410156 4.53125l-33.996094 68.714843c-1.800782 3.640625-1.222656 8.003907 1.460937 11.050781 2.679688 3.046876 6.941407 4.171876 10.777344 2.851563.605469-.210937 58.539063-19.769531 90.226563 2.4375v26.285156h-153.984376c-5.527343 0-10.007812 4.484375-10.007812 10.011719v.792969c-.003906 8.460937-.003906 19.59375 2.75 30.042969-9.882812 2.289062-15.976562 8.988281-20.652344 14.140624-5.144531 5.660157-7.847656 8.382813-13.089844 8.382813-5.242187 0-7.945312-2.722656-13.089843-8.382813-5.726563-6.308593-13.570313-14.949218-27.90625-14.949218-5.527344 0-10.011719 4.484375-10.011719 10.011718 0 5.527344 4.484375 10.007813 10.011719 10.007813zm256-106.902344v-170.097656l121.1875 164.371094c-30.507813-4.542969-82.359375-8.828125-121.1875 5.726562zm143.855469 66.863281c-.269532 8.164063-1.179688 17.867188-4.179688 23.453126-5.933594 3.09375-10.160156 7.71875-13.605469 11.515624-5.140625 5.660157-7.847656 8.382813-13.085937 8.382813-5.242188 0-7.949219-2.722656-13.089844-8.382813-5.730469-6.308593-13.574219-14.949218-27.910156-14.949218-14.335938 0-22.179688 8.640625-27.910156 14.949218-5.140626 5.660157-7.847657 8.382813-13.085938 8.382813-5.242188 0-7.949219-2.722656-13.089844-8.382813-5.730468-6.308593-13.574218-14.949218-27.910156-14.949218s-22.179688 8.640625-27.910156 14.949218c-5.140625 5.660157-7.847656 8.382813-13.089844 8.382813-5.238281 0-7.945312-2.722656-13.085938-8.382813-5.730468-6.308593-13.574218-14.949218-27.910156-14.949218-14.335937 0-22.183594 8.640625-27.910156 14.949218-5.144531 5.660157-7.847656 8.382813-13.089844 8.382813-5.242187 0-7.945312-2.722656-13.089844-8.382813-3.140624-3.464843-6.933593-7.617187-12.074218-10.671874-4.238282-5.949219-5.394532-15.570313-5.707032-24.296876zm0 0"/><path d="m199.285156 123.800781c1.566406.894531 3.273438 1.320313 4.957032 1.320313 3.476562 0 6.855468-1.816406 8.703124-5.050782 2.742188-4.796874 1.074219-10.914062-3.726562-13.65625-4.796875-2.742187-10.914062-1.074218-13.65625 3.726563l-.003906.007813c-2.742188 4.796874-1.070313 10.910156 3.726562 13.652343zm0 0"/></svg>